<svg width="48" height="48" viewBox="0 0 48 48" fill="none" xmlns="http://www.w3.org/2000/svg">
  <!-- Capa 1: Globo verde interno (Elipses de fondo) -->
  <g transform="translate(1, 0.78)">
    <path d="M0.191628 22.8845C0.190512 26.9174 1.24428 30.8553 3.248 34.3261L0 46.1851L12.1362 43.003C15.4929 44.8303 19.2538 45.7878 23.0757 45.7881H23.0858C35.7025 45.7881 45.9728 35.5215 45.9782 22.9025C45.9807 16.7877 43.6015 11.0378 39.2789 6.71181C34.957 2.38623 29.2091 0.0027907 23.0848 0C10.4666 0 0.197023 10.266 0.191814 22.8845" fill="url(#paint0_linear_4739_31900)"/>
  </g>
  
  <!-- Capa 2: Icono del teléfono blanco -->
  <g transform="translate(12, 12)">
    <path d="M6.12279 1.0376C5.67888 0.0509964 5.21172 0.0310883 4.78958 0.013786C4.44391 -0.00109773 4.04874 1.90132e-05 3.65395 1.90132e-05C3.25879 1.90132e-05 2.61674 0.14867 2.07405 0.741229C1.53079 1.33434 0 2.76765 0 5.68281C0 8.59797 2.12335 11.4155 2.41935 11.8112C2.71572 12.2062 6.51851 18.3799 12.5412 20.755C17.5466 22.7288 18.5652 22.3362 19.6515 22.2372C20.738 22.1386 23.1574 20.8043 23.651 19.4207C24.1449 18.0372 24.1449 16.8514 23.9968 16.6036C23.8487 16.3567 23.4536 16.2084 22.861 15.9122C22.2685 15.616 19.3552 14.1823 18.8121 13.9846C18.2688 13.787 17.8739 13.6884 17.4787 14.2817C17.0835 14.8741 15.9488 16.2084 15.603 16.6036C15.2575 16.9996 14.9116 17.0489 14.3193 16.7526C13.7263 16.4553 11.818 15.8303 9.55405 13.8119C7.79256 12.2413 6.60335 10.3018 6.25767 9.70848C5.912 9.11611 6.22065 8.795 6.51777 8.49974C6.784 8.23425 7.11051 7.80783 7.40707 7.46197C7.70251 7.11593 7.80112 6.86904 7.9987 6.47388C8.19647 6.07834 8.09749 5.7323 7.94958 5.43593C7.80112 5.13955 6.64967 2.20914 6.12279 1.0376Z" fill="white"/>
  </g>
  
  <!-- Capa 3: Borde exterior/Fondo base (ESTA CAPA ESTÁ AHORA ENCIMA) -->
  <path d="M0.19907 23.7053C0.197767 27.8834 1.2893 31.962 3.36446 35.5572L0 47.8413L12.5713 44.5451C16.0352 46.4337 19.9351 47.4294 23.9034 47.4309H23.9137C36.9831 47.4309 47.6223 36.795 47.6279 23.7243C47.6301 17.3898 45.1654 11.4331 40.6884 6.95219C36.2108 2.47181 30.2573 0.00260465 23.9137 0C10.842 0 0.204279 10.6344 0.19907 23.7053ZM7.68577 34.938L7.21637 34.1929C5.24316 31.0554 4.20167 27.4298 4.20316 23.7068C4.20726 12.8426 13.0489 4.00372 23.9211 4.00372C29.1862 4.00595 34.1343 6.05842 37.856 9.78233C41.5775 13.5066 43.6253 18.4573 43.624 23.7228C43.6192 34.587 34.7773 43.427 23.9137 43.427H23.9059C20.3686 43.4251 16.8993 42.4752 13.8739 40.68L13.1539 40.253L5.69377 42.2089L7.68577 34.938Z" fill="url(#paint0_linear_4739_31901)"/>

  <!-- Definiciones de Degradados -->
  <defs>
    <linearGradient id="paint0_linear_4739_31901" x1="2381.4" y1="4784.13" x2="2381.4" y2="0" gradientUnits="userSpaceOnUse">
      <stop stop-color="#F9F9F9"/>
      <stop offset="1" stop-color="white"/>
    </linearGradient>
    <linearGradient id="paint0_linear_4739_31900" x1="2298.91" y1="4618.51" x2="2298.91" y2="0" gradientUnits="userSpaceOnUse">
      <stop stop-color="#1FAF38"/>
      <stop offset="1" stop-color="#60D669"/>
    </linearGradient>
  </defs>
</svg>
